G75*
%MOIN*%
%OFA0B0*%
%FSLAX24Y24*%
%IPPOS*%
%LPD*%
%AMOC8*
5,1,8,0,0,1.08239X$1,22.5*
%
%ADD10C,0.0480*%
%ADD11C,0.0390*%
%ADD12C,0.0561*%
%ADD13C,0.0585*%
%ADD14R,0.0900X0.0500*%
%ADD15R,0.0850X0.1400*%
%ADD16C,0.0740*%
%ADD17C,0.0180*%
%ADD18C,0.0050*%
%ADD19C,0.0120*%
%ADD20C,0.0210*%
%ADD21C,0.0160*%
D10*
X013625Y003425D03*
X015525Y003425D03*
D11*
X016075Y005405D03*
X016075Y005945D03*
D12*
X003656Y006541D03*
X003656Y004809D03*
D13*
X002075Y001425D03*
X003075Y001425D03*
X004075Y001425D03*
X005075Y001425D03*
X006075Y001425D03*
X007075Y001425D03*
X008075Y001425D03*
X009075Y001425D03*
X010075Y001425D03*
X011075Y001425D03*
X012075Y001425D03*
X013075Y001425D03*
X014075Y001425D03*
X015075Y001425D03*
X016075Y001425D03*
X017075Y001425D03*
X018075Y001425D03*
X019075Y001425D03*
X020075Y001425D03*
X021075Y001425D03*
X022075Y001425D03*
X023075Y001425D03*
X024075Y001425D03*
X025075Y001425D03*
X026075Y001425D03*
X027075Y001425D03*
X028075Y001425D03*
X029075Y001425D03*
X029075Y003925D03*
X029075Y004925D03*
X029075Y005925D03*
X029075Y006925D03*
X029075Y007925D03*
X029075Y010425D03*
X028075Y010425D03*
X027075Y010425D03*
X026075Y010425D03*
X025075Y010425D03*
X024075Y010425D03*
X023075Y010425D03*
X022075Y010425D03*
X021075Y010425D03*
X020075Y010425D03*
X019075Y010425D03*
X018075Y010425D03*
X017075Y010425D03*
X016075Y010425D03*
X015075Y010425D03*
X014075Y010425D03*
X013075Y010425D03*
X012075Y010425D03*
X011075Y010425D03*
X010075Y010425D03*
X009075Y010425D03*
X008075Y010425D03*
X007075Y010425D03*
X006075Y010425D03*
X005075Y010425D03*
X004075Y010425D03*
X003075Y010425D03*
D14*
X007825Y006575D03*
X007825Y005675D03*
X007825Y004775D03*
D15*
X005325Y005675D03*
D16*
X024185Y004645D03*
X025965Y004645D03*
X026689Y005925D03*
X025965Y007205D03*
X024185Y007205D03*
D17*
X024675Y006575D03*
X023825Y006175D03*
X022725Y005525D03*
X022925Y005175D03*
X022625Y004825D03*
X023275Y004675D03*
X023525Y004275D03*
X024225Y004025D03*
X025225Y004525D03*
X027625Y004475D03*
X028075Y005425D03*
X023625Y003325D03*
X025475Y002875D03*
X022575Y002125D03*
X021625Y001925D03*
X021175Y002375D03*
X020225Y002925D03*
X019675Y002525D03*
X018475Y003025D03*
X017575Y003225D03*
X016975Y003425D03*
X017075Y003775D03*
X017275Y004475D03*
X018125Y004925D03*
X018375Y005125D03*
X018525Y004875D03*
X018725Y004725D03*
X018775Y004475D03*
X019725Y004475D03*
X020325Y004225D03*
X019325Y003975D03*
X019775Y003675D03*
X019575Y003475D03*
X020275Y003675D03*
X021425Y003625D03*
X021825Y003675D03*
X021225Y004825D03*
X021025Y005175D03*
X020425Y005175D03*
X019525Y005475D03*
X018325Y005775D03*
X017725Y006025D03*
X017525Y006175D03*
X018125Y006425D03*
X018825Y006175D03*
X019075Y006675D03*
X019525Y006925D03*
X020075Y006775D03*
X020925Y006625D03*
X020275Y006225D03*
X020625Y006025D03*
X021775Y005675D03*
X021925Y005975D03*
X022225Y006175D03*
X021475Y005275D03*
X017575Y005475D03*
X016875Y006025D03*
X014975Y006855D03*
X014975Y007775D03*
X013225Y008475D03*
X012075Y008575D03*
X012975Y009125D03*
X013725Y009325D03*
X014775Y009475D03*
X015775Y009475D03*
X017525Y009675D03*
X018725Y009725D03*
X019625Y009925D03*
X021175Y009275D03*
X022825Y009275D03*
X024275Y008675D03*
X025475Y008025D03*
X027125Y007875D03*
X026725Y009125D03*
X024625Y009725D03*
X019875Y008175D03*
X019625Y008525D03*
X018325Y008625D03*
X017325Y008525D03*
X019125Y007925D03*
X018725Y007575D03*
X018925Y007425D03*
X019425Y007525D03*
X018625Y006975D03*
X015075Y008525D03*
X011025Y007525D03*
X010975Y007275D03*
X011025Y006975D03*
X011375Y006925D03*
X010675Y006425D03*
X010025Y006575D03*
X009825Y006025D03*
X010725Y006075D03*
X012325Y006305D03*
X012225Y005375D03*
X012025Y004975D03*
X012925Y004575D03*
X014425Y004225D03*
X011075Y003675D03*
X010075Y004125D03*
X009325Y004525D03*
X007875Y003425D03*
X005725Y004375D03*
X005475Y004725D03*
X006275Y004875D03*
X007075Y005675D03*
X008625Y005675D03*
X005625Y006775D03*
X005425Y006575D03*
X007475Y007275D03*
X007325Y007625D03*
X007275Y007925D03*
X008375Y007725D03*
X009075Y008075D03*
X008675Y008275D03*
X005725Y007875D03*
X003775Y007425D03*
X002175Y008475D03*
X003775Y003975D03*
X010775Y002875D03*
X010975Y002575D03*
X011375Y002475D03*
X016375Y002075D03*
X016575Y001825D03*
X028575Y002825D03*
D18*
X028575Y007475D01*
X029025Y007925D01*
X029075Y007925D01*
X027125Y007875D02*
X027125Y006925D01*
X027225Y006825D01*
X027225Y006525D01*
X027225Y003875D01*
X027075Y003725D01*
X027075Y001425D01*
X026075Y001425D02*
X026075Y002875D01*
X025475Y003475D01*
X025475Y005825D01*
X025475Y005875D01*
X025475Y008025D01*
X024975Y007375D02*
X024625Y007725D01*
X024625Y009725D01*
X023075Y009775D02*
X022825Y009525D01*
X022825Y009275D01*
X023075Y009775D02*
X023075Y010425D01*
X024075Y010425D02*
X024075Y008875D01*
X023525Y008325D01*
X023525Y004275D01*
X024225Y004025D02*
X024275Y003575D01*
X024075Y003375D01*
X024075Y001425D01*
X025075Y001425D02*
X025075Y003125D01*
X024975Y003225D01*
X024975Y007375D01*
X024675Y007425D02*
X024675Y006575D01*
X024185Y007205D02*
X024185Y004645D01*
X025225Y004525D02*
X025225Y003525D01*
X025475Y003275D01*
X025475Y002875D01*
X022625Y003475D02*
X022575Y003425D01*
X022575Y002125D01*
X021625Y001925D02*
X021625Y002625D01*
X022175Y003175D01*
X022225Y003225D01*
X022225Y006175D01*
X021175Y005975D02*
X021025Y005825D01*
X021025Y005175D01*
X020425Y005175D02*
X020425Y004725D01*
X020325Y004625D01*
X020325Y004225D01*
X020775Y004525D02*
X020925Y004375D01*
X020925Y002275D01*
X021075Y002125D01*
X021075Y001425D01*
X020075Y001425D02*
X020075Y001875D01*
X020075Y001975D01*
X020025Y002025D01*
X020025Y005875D01*
X020075Y005925D01*
X020075Y006775D01*
X019875Y006925D02*
X019875Y008175D01*
X020075Y008525D02*
X020325Y008275D01*
X020275Y006225D01*
X020625Y006025D02*
X020625Y009275D01*
X021075Y009725D01*
X021075Y010425D01*
X020075Y010425D02*
X020075Y008525D01*
X019625Y008525D02*
X019625Y009925D01*
X018725Y009725D02*
X018325Y009325D01*
X018325Y008625D01*
X018075Y008575D02*
X019225Y007425D01*
X019225Y006975D01*
X019525Y006675D01*
X019525Y005475D01*
X018925Y005825D02*
X018925Y004625D01*
X018775Y004475D01*
X018725Y004725D02*
X018725Y005875D01*
X018675Y005925D01*
X018625Y005975D01*
X018625Y006975D01*
X018925Y006975D02*
X019025Y006975D01*
X019325Y006675D01*
X019325Y004825D01*
X019375Y004775D01*
X019325Y003975D01*
X019775Y003675D02*
X019875Y003575D01*
X019875Y003225D01*
X019775Y003125D01*
X019675Y003025D01*
X019675Y002525D01*
X021175Y002375D02*
X021175Y003525D01*
X021225Y003575D01*
X021225Y004625D01*
X021225Y004825D01*
X021775Y004775D02*
X021775Y005675D01*
X021175Y005975D02*
X021175Y009275D01*
X019425Y008775D02*
X019425Y007525D01*
X018925Y006975D02*
X017975Y007925D01*
X017975Y007975D01*
X017975Y009525D01*
X017075Y010425D01*
X016075Y010425D02*
X016075Y008575D01*
X016925Y007725D01*
X016875Y006025D01*
X017525Y006175D02*
X017575Y007675D01*
X017525Y007725D01*
X017325Y007925D01*
X017325Y008525D01*
X018075Y008575D02*
X018075Y010425D01*
X019075Y010425D02*
X019075Y009125D01*
X019425Y008775D01*
X017725Y007775D02*
X017525Y007975D01*
X017525Y009675D01*
X015775Y009475D02*
X015775Y004525D01*
X016075Y004225D01*
X016075Y001425D01*
X015075Y001425D02*
X015075Y004125D01*
X014775Y004425D01*
X014775Y009475D01*
X013725Y009325D02*
X013725Y006475D01*
X014075Y006125D01*
X014075Y001425D01*
X013075Y001425D02*
X013075Y003875D01*
X013425Y004225D01*
X013425Y007225D01*
X013225Y007425D01*
X013225Y008475D01*
X012075Y008575D02*
X012075Y010425D01*
X011075Y010425D02*
X011075Y008675D01*
X011625Y008125D01*
X011625Y006725D01*
X012275Y006075D01*
X012275Y005425D01*
X012225Y005375D01*
X012025Y004975D02*
X012025Y006075D01*
X011375Y006725D01*
X011375Y006925D01*
X011025Y006975D02*
X011025Y005325D01*
X011075Y005275D01*
X011075Y003675D01*
X011125Y003375D01*
X011375Y003125D01*
X011375Y002475D01*
X011075Y002675D02*
X010975Y002575D01*
X011075Y002675D02*
X011075Y003075D01*
X011075Y003125D01*
X010725Y003475D01*
X010725Y006075D01*
X010525Y006275D02*
X010525Y003525D01*
X010575Y003475D01*
X010775Y003275D01*
X010775Y002875D01*
X010075Y002875D02*
X009925Y003025D01*
X009875Y003075D01*
X009875Y004975D01*
X009925Y005025D01*
X010025Y005125D01*
X010025Y006575D01*
X010525Y006275D02*
X010675Y006425D01*
X009825Y006025D02*
X009825Y009125D01*
X010075Y009375D01*
X010075Y010425D01*
X009075Y010425D02*
X009075Y008075D01*
X008675Y008275D02*
X008675Y008825D01*
X008425Y009075D01*
X008075Y009425D01*
X008075Y010425D01*
X012975Y009575D02*
X012975Y009125D01*
X012975Y009575D02*
X013075Y009675D01*
X013075Y010425D01*
X015075Y010425D02*
X015075Y008525D01*
X014975Y007775D02*
X014975Y006855D01*
X017725Y006025D02*
X017775Y007725D01*
X017725Y007775D01*
X019725Y006775D02*
X019875Y006925D01*
X019725Y006775D02*
X019725Y004475D01*
X020775Y004525D02*
X020775Y005775D01*
X020825Y005825D01*
X020875Y005875D01*
X020975Y005975D01*
X020925Y006625D01*
X019075Y006675D02*
X019075Y001425D01*
X016575Y001825D02*
X016575Y002475D01*
X016975Y002875D01*
X016975Y003425D01*
X017575Y003225D02*
X017575Y003875D01*
X017275Y004175D01*
X017275Y004475D01*
X018125Y004925D02*
X018125Y006375D01*
X018125Y006425D01*
X018825Y006175D02*
X018825Y005925D01*
X018925Y005825D01*
X018325Y005775D02*
X018375Y005125D01*
X017075Y003775D02*
X016375Y003075D01*
X016375Y002075D01*
X021825Y003675D02*
X021825Y004725D01*
X021775Y004775D01*
X022625Y004825D02*
X022625Y003475D01*
X028075Y005425D02*
X028075Y001425D01*
X024675Y007425D02*
X024275Y007825D01*
X024275Y008675D01*
X010075Y002875D02*
X010075Y001425D01*
X008075Y001425D02*
X008075Y002475D01*
X007875Y002675D01*
X007875Y003425D01*
X005725Y004375D02*
X005725Y005025D01*
X005325Y005425D01*
X005325Y005675D01*
X005350Y005678D02*
X005850Y005678D01*
X005825Y005700D02*
X005825Y006390D01*
X005814Y006417D01*
X005792Y006439D01*
X005765Y006450D01*
X005350Y006450D01*
X005350Y005700D01*
X005300Y005700D01*
X005300Y006450D01*
X004885Y006450D01*
X004858Y006439D01*
X004836Y006417D01*
X004825Y006390D01*
X004825Y005700D01*
X005300Y005700D01*
X005300Y005650D01*
X005350Y005650D01*
X005350Y005700D01*
X005825Y005700D01*
X005825Y005727D02*
X005851Y005727D01*
X005852Y005775D02*
X005825Y005775D01*
X005825Y005824D02*
X005854Y005824D01*
X005855Y005872D02*
X005825Y005872D01*
X005825Y005921D02*
X005856Y005921D01*
X005857Y005969D02*
X005825Y005969D01*
X005825Y006018D02*
X005858Y006018D01*
X005859Y006066D02*
X005825Y006066D01*
X005825Y006115D02*
X005860Y006115D01*
X005862Y006163D02*
X005825Y006163D01*
X005825Y006212D02*
X005863Y006212D01*
X005864Y006260D02*
X005825Y006260D01*
X005825Y006309D02*
X005865Y006309D01*
X005866Y006357D02*
X005825Y006357D01*
X005819Y006406D02*
X005867Y006406D01*
X005869Y006454D02*
X004001Y006454D01*
X003998Y006437D02*
X004012Y006506D01*
X004012Y006516D01*
X003681Y006516D01*
X003681Y006186D01*
X003691Y006186D01*
X003760Y006199D01*
X003824Y006226D01*
X003883Y006265D01*
X003932Y006315D01*
X003971Y006373D01*
X003998Y006437D01*
X003985Y006406D02*
X004831Y006406D01*
X004825Y006357D02*
X003961Y006357D01*
X003926Y006309D02*
X004825Y006309D01*
X004825Y006260D02*
X003875Y006260D01*
X003789Y006212D02*
X004825Y006212D01*
X004825Y006163D02*
X002825Y006163D01*
X002825Y006115D02*
X004825Y006115D01*
X004825Y006066D02*
X002825Y006066D01*
X002825Y006018D02*
X004825Y006018D01*
X004825Y005969D02*
X002825Y005969D01*
X002825Y005921D02*
X004825Y005921D01*
X004825Y005872D02*
X002825Y005872D01*
X002825Y005824D02*
X004825Y005824D01*
X004825Y005775D02*
X002825Y005775D01*
X002825Y005727D02*
X004825Y005727D01*
X004825Y005650D02*
X004825Y004960D01*
X004836Y004933D01*
X004858Y004911D01*
X004885Y004900D01*
X005300Y004900D01*
X005300Y005650D01*
X004825Y005650D01*
X004825Y005630D02*
X002825Y005630D01*
X002825Y005678D02*
X005300Y005678D01*
X005300Y005630D02*
X005350Y005630D01*
X005350Y005650D02*
X005350Y004900D01*
X005765Y004900D01*
X005792Y004911D01*
X005814Y004933D01*
X005825Y004960D01*
X005825Y005650D01*
X005350Y005650D01*
X005350Y005581D02*
X005300Y005581D01*
X005300Y005533D02*
X005350Y005533D01*
X005350Y005484D02*
X005300Y005484D01*
X005300Y005436D02*
X005350Y005436D01*
X005350Y005387D02*
X005300Y005387D01*
X005300Y005339D02*
X005350Y005339D01*
X005350Y005290D02*
X005300Y005290D01*
X005300Y005242D02*
X005350Y005242D01*
X005350Y005193D02*
X005300Y005193D01*
X005300Y005145D02*
X005350Y005145D01*
X005350Y005096D02*
X005300Y005096D01*
X005300Y005048D02*
X005350Y005048D01*
X005350Y004999D02*
X005300Y004999D01*
X005300Y004951D02*
X005350Y004951D01*
X005350Y004902D02*
X005300Y004902D01*
X004880Y004902D02*
X004000Y004902D01*
X003998Y004913D02*
X003971Y004977D01*
X003932Y005035D01*
X003883Y005085D01*
X003824Y005124D01*
X003760Y005151D01*
X003691Y005164D01*
X003681Y005164D01*
X003681Y004834D01*
X003631Y004834D01*
X003631Y005164D01*
X003621Y005164D01*
X003552Y005151D01*
X003488Y005124D01*
X003429Y005085D01*
X003380Y005035D01*
X003341Y004977D01*
X003314Y004913D01*
X003301Y004844D01*
X003301Y004834D01*
X003631Y004834D01*
X003631Y004784D01*
X003301Y004784D01*
X003301Y004774D01*
X003314Y004705D01*
X003341Y004640D01*
X003351Y004625D01*
X002825Y004625D01*
X002825Y006725D01*
X003351Y006725D01*
X003341Y006710D01*
X003314Y006645D01*
X003301Y006576D01*
X003301Y006566D01*
X003631Y006566D01*
X003631Y006516D01*
X003681Y006516D01*
X003681Y006566D01*
X004012Y006566D01*
X004012Y006576D01*
X003998Y006645D01*
X003971Y006710D01*
X003961Y006725D01*
X005460Y006725D01*
X005460Y006707D01*
X005557Y006610D01*
X005693Y006610D01*
X005790Y006707D01*
X005790Y006725D01*
X005875Y006725D01*
X005825Y004625D01*
X003961Y004625D01*
X003971Y004640D01*
X003998Y004705D01*
X004012Y004774D01*
X004012Y004784D01*
X003681Y004784D01*
X003681Y004834D01*
X004012Y004834D01*
X004012Y004844D01*
X003998Y004913D01*
X003982Y004951D02*
X004829Y004951D01*
X004825Y004999D02*
X003957Y004999D01*
X003920Y005048D02*
X004825Y005048D01*
X004825Y005096D02*
X003866Y005096D01*
X003775Y005145D02*
X004825Y005145D01*
X004825Y005193D02*
X002825Y005193D01*
X002825Y005145D02*
X003537Y005145D01*
X003631Y005145D02*
X003681Y005145D01*
X003681Y005096D02*
X003631Y005096D01*
X003631Y005048D02*
X003681Y005048D01*
X003681Y004999D02*
X003631Y004999D01*
X003631Y004951D02*
X003681Y004951D01*
X003681Y004902D02*
X003631Y004902D01*
X003631Y004854D02*
X003681Y004854D01*
X003681Y004805D02*
X005829Y004805D01*
X005828Y004757D02*
X004008Y004757D01*
X003999Y004708D02*
X005827Y004708D01*
X005826Y004660D02*
X003979Y004660D01*
X004010Y004854D02*
X005830Y004854D01*
X005832Y004902D02*
X005770Y004902D01*
X005821Y004951D02*
X005833Y004951D01*
X005825Y004999D02*
X005834Y004999D01*
X005825Y005048D02*
X005835Y005048D01*
X005836Y005096D02*
X005825Y005096D01*
X005825Y005145D02*
X005837Y005145D01*
X005839Y005193D02*
X005825Y005193D01*
X005825Y005242D02*
X005840Y005242D01*
X005841Y005290D02*
X005825Y005290D01*
X005825Y005339D02*
X005842Y005339D01*
X005843Y005387D02*
X005825Y005387D01*
X005825Y005436D02*
X005844Y005436D01*
X005845Y005484D02*
X005825Y005484D01*
X005825Y005533D02*
X005847Y005533D01*
X005848Y005581D02*
X005825Y005581D01*
X005825Y005630D02*
X005849Y005630D01*
X005350Y005727D02*
X005300Y005727D01*
X005300Y005775D02*
X005350Y005775D01*
X005350Y005824D02*
X005300Y005824D01*
X005300Y005872D02*
X005350Y005872D01*
X005350Y005921D02*
X005300Y005921D01*
X005300Y005969D02*
X005350Y005969D01*
X005350Y006018D02*
X005300Y006018D01*
X005300Y006066D02*
X005350Y006066D01*
X005350Y006115D02*
X005300Y006115D01*
X005300Y006163D02*
X005350Y006163D01*
X005350Y006212D02*
X005300Y006212D01*
X005300Y006260D02*
X005350Y006260D01*
X005350Y006309D02*
X005300Y006309D01*
X005300Y006357D02*
X005350Y006357D01*
X005350Y006406D02*
X005300Y006406D01*
X005519Y006648D02*
X003997Y006648D01*
X004007Y006600D02*
X005872Y006600D01*
X005873Y006648D02*
X005731Y006648D01*
X005780Y006697D02*
X005874Y006697D01*
X005470Y006697D02*
X003977Y006697D01*
X004011Y006503D02*
X005870Y006503D01*
X005871Y006551D02*
X003681Y006551D01*
X003681Y006503D02*
X003631Y006503D01*
X003631Y006516D02*
X003631Y006186D01*
X003621Y006186D01*
X003552Y006199D01*
X003488Y006226D01*
X003429Y006265D01*
X003380Y006315D01*
X003341Y006373D01*
X003314Y006437D01*
X003301Y006506D01*
X003301Y006516D01*
X003631Y006516D01*
X003631Y006551D02*
X002825Y006551D01*
X002825Y006503D02*
X003301Y006503D01*
X003311Y006454D02*
X002825Y006454D01*
X002825Y006406D02*
X003327Y006406D01*
X003352Y006357D02*
X002825Y006357D01*
X002825Y006309D02*
X003386Y006309D01*
X003437Y006260D02*
X002825Y006260D01*
X002825Y006212D02*
X003523Y006212D01*
X003631Y006212D02*
X003681Y006212D01*
X003681Y006260D02*
X003631Y006260D01*
X003631Y006309D02*
X003681Y006309D01*
X003681Y006357D02*
X003631Y006357D01*
X003631Y006406D02*
X003681Y006406D01*
X003681Y006454D02*
X003631Y006454D01*
X003305Y006600D02*
X002825Y006600D01*
X002825Y006648D02*
X003316Y006648D01*
X003336Y006697D02*
X002825Y006697D01*
X002825Y005581D02*
X004825Y005581D01*
X004825Y005533D02*
X002825Y005533D01*
X002825Y005484D02*
X004825Y005484D01*
X004825Y005436D02*
X002825Y005436D01*
X002825Y005387D02*
X004825Y005387D01*
X004825Y005339D02*
X002825Y005339D01*
X002825Y005290D02*
X004825Y005290D01*
X004825Y005242D02*
X002825Y005242D01*
X002825Y005096D02*
X003446Y005096D01*
X003392Y005048D02*
X002825Y005048D01*
X002825Y004999D02*
X003356Y004999D01*
X003330Y004951D02*
X002825Y004951D01*
X002825Y004902D02*
X003312Y004902D01*
X003303Y004854D02*
X002825Y004854D01*
X002825Y004805D02*
X003631Y004805D01*
X003304Y004757D02*
X002825Y004757D01*
X002825Y004708D02*
X003314Y004708D01*
X003333Y004660D02*
X002825Y004660D01*
D19*
X007075Y005675D02*
X007825Y005675D01*
X008625Y005675D01*
X007825Y006575D02*
X007825Y006925D01*
X007475Y007275D01*
X005725Y007875D02*
X004225Y007875D01*
X003625Y008475D01*
X002175Y008475D01*
X022075Y008125D02*
X022725Y007475D01*
X022725Y005525D01*
X022975Y005525D01*
X023275Y005225D01*
X023275Y004675D01*
X027625Y004475D02*
X027625Y007425D01*
X028075Y007875D01*
X028075Y010425D01*
X022075Y010425D02*
X022075Y008125D01*
D20*
X006925Y004525D03*
D21*
X007325Y004525D01*
X007525Y004725D01*
X007775Y004725D01*
X007825Y004775D01*
X006925Y004525D02*
X006925Y005075D01*
X006075Y005925D01*
X006075Y010425D01*
M02*
