G75*
%MOIN*%
%OFA0B0*%
%FSLAX24Y24*%
%IPPOS*%
%LPD*%
%AMOC8*
5,1,8,0,0,1.08239X$1,22.5*
%
%ADD10C,0.0540*%
%ADD11C,0.0450*%
%ADD12C,0.0621*%
%ADD13C,0.0645*%
%ADD14R,0.0960X0.0560*%
%ADD15R,0.0910X0.1460*%
%ADD16C,0.0800*%
%ADD17C,0.0240*%
%ADD18C,0.0270*%
D10*
X013625Y003425D03*
X015525Y003425D03*
D11*
X016075Y005405D03*
X016075Y005945D03*
D12*
X003656Y006541D03*
X003656Y004809D03*
D13*
X002075Y001425D03*
X003075Y001425D03*
X004075Y001425D03*
X005075Y001425D03*
X006075Y001425D03*
X007075Y001425D03*
X008075Y001425D03*
X009075Y001425D03*
X010075Y001425D03*
X011075Y001425D03*
X012075Y001425D03*
X013075Y001425D03*
X014075Y001425D03*
X015075Y001425D03*
X016075Y001425D03*
X017075Y001425D03*
X018075Y001425D03*
X019075Y001425D03*
X020075Y001425D03*
X021075Y001425D03*
X022075Y001425D03*
X023075Y001425D03*
X024075Y001425D03*
X025075Y001425D03*
X026075Y001425D03*
X027075Y001425D03*
X028075Y001425D03*
X029075Y001425D03*
X029075Y003925D03*
X029075Y004925D03*
X029075Y005925D03*
X029075Y006925D03*
X029075Y007925D03*
X029075Y010425D03*
X028075Y010425D03*
X027075Y010425D03*
X026075Y010425D03*
X025075Y010425D03*
X024075Y010425D03*
X023075Y010425D03*
X022075Y010425D03*
X021075Y010425D03*
X020075Y010425D03*
X019075Y010425D03*
X018075Y010425D03*
X017075Y010425D03*
X016075Y010425D03*
X015075Y010425D03*
X014075Y010425D03*
X013075Y010425D03*
X012075Y010425D03*
X011075Y010425D03*
X010075Y010425D03*
X009075Y010425D03*
X008075Y010425D03*
X007075Y010425D03*
X006075Y010425D03*
X005075Y010425D03*
X004075Y010425D03*
X003075Y010425D03*
D14*
X007825Y006575D03*
X007825Y005675D03*
X007825Y004775D03*
D15*
X005325Y005675D03*
D16*
X024185Y004645D03*
X025965Y004645D03*
X026689Y005925D03*
X025965Y007205D03*
X024185Y007205D03*
D17*
X024675Y006575D03*
X023825Y006175D03*
X022725Y005525D03*
X022925Y005175D03*
X022625Y004825D03*
X023275Y004675D03*
X023525Y004275D03*
X024225Y004025D03*
X025225Y004525D03*
X027625Y004475D03*
X028075Y005425D03*
X023625Y003325D03*
X025475Y002875D03*
X022575Y002125D03*
X021625Y001925D03*
X021175Y002375D03*
X020225Y002925D03*
X019675Y002525D03*
X018475Y003025D03*
X017575Y003225D03*
X016975Y003425D03*
X017075Y003775D03*
X017275Y004475D03*
X018125Y004925D03*
X018375Y005125D03*
X018525Y004875D03*
X018725Y004725D03*
X018775Y004475D03*
X019725Y004475D03*
X020325Y004225D03*
X019325Y003975D03*
X019775Y003675D03*
X019575Y003475D03*
X020275Y003675D03*
X021425Y003625D03*
X021825Y003675D03*
X021225Y004825D03*
X021025Y005175D03*
X020425Y005175D03*
X019525Y005475D03*
X018325Y005775D03*
X017725Y006025D03*
X017525Y006175D03*
X018125Y006425D03*
X018825Y006175D03*
X019075Y006675D03*
X019525Y006925D03*
X020075Y006775D03*
X020925Y006625D03*
X020275Y006225D03*
X020625Y006025D03*
X021775Y005675D03*
X021925Y005975D03*
X022225Y006175D03*
X021475Y005275D03*
X017575Y005475D03*
X016875Y006025D03*
X014975Y006855D03*
X014975Y007775D03*
X013225Y008475D03*
X012075Y008575D03*
X012975Y009125D03*
X013725Y009325D03*
X014775Y009475D03*
X015775Y009475D03*
X017525Y009675D03*
X018725Y009725D03*
X019625Y009925D03*
X021175Y009275D03*
X022825Y009275D03*
X024275Y008675D03*
X025475Y008025D03*
X027125Y007875D03*
X026725Y009125D03*
X024625Y009725D03*
X019875Y008175D03*
X019625Y008525D03*
X018325Y008625D03*
X017325Y008525D03*
X019125Y007925D03*
X018725Y007575D03*
X018925Y007425D03*
X019425Y007525D03*
X018625Y006975D03*
X015075Y008525D03*
X011025Y007525D03*
X010975Y007275D03*
X011025Y006975D03*
X011375Y006925D03*
X010675Y006425D03*
X010025Y006575D03*
X009825Y006025D03*
X010725Y006075D03*
X012325Y006305D03*
X012225Y005375D03*
X012025Y004975D03*
X012925Y004575D03*
X014425Y004225D03*
X011075Y003675D03*
X010075Y004125D03*
X009325Y004525D03*
X007875Y003425D03*
X005725Y004375D03*
X005475Y004725D03*
X006275Y004875D03*
X007075Y005675D03*
X008625Y005675D03*
X005625Y006775D03*
X005425Y006575D03*
X007475Y007275D03*
X007325Y007625D03*
X007275Y007925D03*
X008375Y007725D03*
X009075Y008075D03*
X008675Y008275D03*
X005725Y007875D03*
X003775Y007425D03*
X002175Y008475D03*
X003775Y003975D03*
X010775Y002875D03*
X010975Y002575D03*
X011375Y002475D03*
X016375Y002075D03*
X016575Y001825D03*
X028575Y002825D03*
D18*
X006925Y004525D03*
M02*
